<svg enable-background="new 0 0 52.2 44.3" viewBox="0 0 52.2 44.3" xmlns="http://www.w3.org/2000/svg"><path d="m23.6.8c-11.7 0-21.2 9.6-21.2 21.4s9.5 21.4 21.2 21.4 21.2-9.6 21.2-21.4-9.5-21.4-21.2-21.4zm11 .8c7.2 4 12.1 11.7 12.1 20.5s-4.9 16.6-12.1 20.5c9-2.7 15.2-11 15.2-20.5 0-9.4-6.2-17.8-15.2-20.5zm-10.7 4.1c1.2 0 2.1.9 2 2.1v.6c2.1.3 4 1 5.7 2 .8.4 1.4 1.2 1.4 2.4 0 1.5-1.2 2.7-2.7 2.7-.5 0-1-.1-1.4-.4-1.1-.6-2.2-1.1-3.3-1.4l-.1 6.1c6 1.7 8.6 4.2 8.5 8.7 0 4.5-3.5 7.3-8.5 7.8v2.1c0 1.2-.9 2.1-2.1 2.1s-2.1-.9-2-2.1v-2.2c-2.8-.4-5.5-1.4-7.8-2.9-.8-.5-1.3-1.3-1.3-2.4 0-1.6 1.2-2.7 2.8-2.7.5 0 1.1.2 1.5.5 1.7 1.1 3.2 1.9 5.1 2.3l.1-6.4c-5.7-1.6-8.5-3.9-8.4-8.6 0-4.4 3.4-7.3 8.4-7.8v-.5c0-1.1.9-2 2.1-2zm-2 7.6c-1.9.3-2.8 1.2-2.8 2.5 0 1.2.5 2.1 2.7 2.9zm3.6 12.5-.1 5.6c1.9-.3 2.8-1.1 2.8-2.6.2-1.4-.5-2.2-2.7-3z" fill="#3e80ff"/></svg>